<svg xmlns="http://www.w3.org/2000/svg" viewBox="0 0 512 512" width="512" height="512">
  <defs>
    <linearGradient id="grad1" x1="0%" y1="0%" x2="100%" y2="100%">
      <stop offset="0%" style="stop-color:#3b82f6;stop-opacity:1" />
      <stop offset="100%" style="stop-color:#1d4ed8;stop-opacity:1" />
    </linearGradient>
  </defs>
  <rect width="512" height="512" rx="80" fill="url(#grad1)"/>
  <g fill="white">
    <!-- Menorah symbol - scaled for 512x512 -->
    <rect x="241" y="200" width="30" height="170" rx="6"/>
    <rect x="131" y="230" width="26" height="140" rx="6"/>
    <rect x="186" y="215" width="26" height="155" rx="6"/>
    <rect x="300" y="215" width="26" height="155" rx="6"/>
    <rect x="355" y="230" width="26" height="140" rx="6"/>
    <!-- Flames -->
    <ellipse cx="256" cy="180" rx="18" ry="28"/>
    <ellipse cx="144" cy="208" rx="15" ry="25"/>
    <ellipse cx="199" cy="193" rx="15" ry="25"/>
    <ellipse cx="313" cy="193" rx="15" ry="25"/>
    <ellipse cx="368" cy="208" rx="15" ry="25"/>
    <!-- Base -->
    <rect x="116" y="370" width="280" height="32" rx="10"/>
    <rect x="166" y="402" width="180" height="24" rx="8"/>
  </g>
</svg>
