<svg xmlns="http://www.w3.org/2000/svg" viewBox="0 0 192 192" width="192" height="192">
  <defs>
    <linearGradient id="grad1" x1="0%" y1="0%" x2="100%" y2="100%">
      <stop offset="0%" style="stop-color:#3b82f6;stop-opacity:1" />
      <stop offset="100%" style="stop-color:#1d4ed8;stop-opacity:1" />
    </linearGradient>
  </defs>
  <rect width="192" height="192" rx="32" fill="url(#grad1)"/>
  <g fill="white">
    <!-- Menorah symbol -->
    <rect x="91" y="80" width="10" height="60" rx="2"/>
    <rect x="51" y="90" width="10" height="50" rx="2"/>
    <rect x="71" y="85" width="10" height="55" rx="2"/>
    <rect x="111" y="85" width="10" height="55" rx="2"/>
    <rect x="131" y="90" width="10" height="50" rx="2"/>
    <!-- Flames -->
    <ellipse cx="96" cy="72" rx="6" ry="10"/>
    <ellipse cx="56" cy="82" rx="5" ry="9"/>
    <ellipse cx="76" cy="77" rx="5" ry="9"/>
    <ellipse cx="116" cy="77" rx="5" ry="9"/>
    <ellipse cx="136" cy="82" rx="5" ry="9"/>
    <!-- Base -->
    <rect x="46" y="140" width="100" height="12" rx="4"/>
    <rect x="66" y="152" width="60" height="8" rx="3"/>
  </g>
</svg>
